<svg width="64" height="64" viewBox="0 0 64 64" fill="none" xmlns="http://www.w3.org/2000/svg">
<rect width="64" height="64" rx="20" fill="#090909"/>
<path d="M29.9934 10.9375C30.8542 16.3053 30.5155 21.7183 30.5982 27.1251C30.6209 28.5907 32.2104 29.0044 33.2305 28.2151C33.2957 28.1642 33.3615 28.1138 33.4268 28.063C34.9978 26.8471 32.7978 24.6815 31.2468 25.8825C31.181 25.9333 31.1157 25.9842 31.05 26.0346C31.9272 26.3979 32.8044 26.7618 33.6817 27.1251C33.5948 21.4279 33.8734 15.7729 32.9668 10.1178C32.6528 8.15882 29.6814 8.99289 29.9934 10.9375Z" fill="#FFE1B5"/>
<path d="M31.2417 25.9997C28.8459 26.5285 27.2779 28.9377 27.3802 31.3264C27.4994 34.1004 30.1332 35.7567 32.7469 35.4361C35.2168 35.1334 36.351 33.1065 35.9892 30.7739C35.6505 28.5954 33.6417 26.7726 31.5475 26.342C29.607 25.9427 28.7811 28.9146 30.7278 29.3149C31.6842 29.5117 32.5023 30.075 32.861 31.017C33.0209 31.4368 33.0476 31.7642 32.9797 32.0458C32.9402 32.2103 32.9268 32.2591 32.5522 32.3644C29.9611 33.0916 29.8968 29.4501 32.0609 28.9721C34.0024 28.5451 33.1791 25.5721 31.2417 25.9997Z" fill="#FFE1B5"/>
<path d="M23.0079 26.6483C24.564 25.5218 25.8822 24.1414 27.2209 22.7724C28.646 21.3149 30.2371 19.4099 32.2326 18.7521C34.1119 18.1333 33.3071 15.1552 31.4129 15.7791C27.1829 17.1718 24.9114 21.4809 21.4518 23.9857C19.8577 25.14 21.3943 27.8164 23.0079 26.6483Z" fill="#FFE1B5"/>
<path d="M31.387 18.9395C33.3301 20.2901 35.0589 21.9788 36.9305 23.4285C38.2019 24.4131 40.5227 26.6101 42.3389 25.9471C44.191 25.2714 43.3914 22.2907 41.5192 22.9742C41.7279 22.8981 41.9118 23.0492 41.4776 22.8318C41.0983 22.6417 40.7432 22.3996 40.3902 22.1663C39.351 21.4792 38.3813 20.6868 37.4157 19.9026C35.931 18.6975 34.5141 17.3705 32.9426 16.278C31.3058 15.1386 29.7667 17.813 31.387 18.9395Z" fill="#FFE1B5"/>
<path d="M21.3063 51.1286C25.0522 52.3949 29.4728 52.1847 33.3811 52.0058C35.0076 51.9313 36.6321 51.7941 38.2555 51.679C38.9267 51.6312 39.5978 51.5865 40.2695 51.5464C40.5049 51.532 41.7475 51.5798 41.3482 51.4714C43.2697 51.9945 44.0842 49.0195 42.1679 48.4979C40.0115 47.911 37.0344 48.688 34.8442 48.835C30.7704 49.1089 26.0137 49.4697 22.1255 48.1556C20.2369 47.5163 19.4331 50.4955 21.3063 51.1286Z" fill="#FFE1B5"/>
<path d="M20.6882 25.3172C20.0504 33.5273 20.4764 41.7678 20.0031 49.9847C19.8885 51.972 22.9725 51.9612 23.0866 49.9847C23.5604 41.7678 23.1344 33.5273 23.7716 25.3172C23.9258 23.333 20.8408 23.3479 20.6882 25.3172Z" fill="#FFE1B5"/>
<path d="M42.9023 49.7092C44.1773 41.352 43.4954 32.8736 43.4712 24.4604C43.4656 22.4721 40.3821 22.4716 40.3878 24.4604C40.4109 32.573 41.1586 40.8309 39.9289 48.8895C39.6323 50.8341 42.6032 51.6698 42.9023 49.7092Z" fill="#FFE1B5"/>
</svg>
