<svg width="64" height="64" viewBox="0 0 64 64" fill="none" xmlns="http://www.w3.org/2000/svg">
<rect width="64" height="64" rx="20" fill="#090909"/>
<path d="M29.3335 18.2207L29.3334 18.2207C28.6082 18.231 27.8621 18.3028 27.0926 18.3891C26.9149 18.4091 26.7354 18.4298 26.5548 18.4507C25.9607 18.5195 25.3534 18.5898 24.7508 18.6368C23.1759 18.7597 21.5461 18.7329 19.9911 18.0911L29.3335 18.2207ZM29.3335 18.2207C31.4204 18.191 33.5075 18.2769 35.6109 18.3635L35.6118 18.3636C37.7109 18.45 39.8263 18.537 41.9464 18.5063C42.1767 18.503 42.3806 18.4053 42.5201 18.241C42.6511 18.0867 42.7056 17.8983 42.7057 17.7272C42.7058 17.5563 42.6516 17.3655 42.5164 17.2101C42.3717 17.0439 42.1625 16.9518 41.9319 16.9551L41.9319 16.9551M29.3335 18.2207L41.9319 16.9551M41.9319 16.9551C39.9604 16.9838 37.9885 16.9198 36.0056 16.8445C35.7417 16.8344 35.4776 16.8242 35.2132 16.814C33.495 16.7474 31.7676 16.6804 30.0387 16.6673L30.0387 16.6673M41.9319 16.9551L30.0387 16.6673M30.0387 16.6673C28.9707 16.6593 27.8308 16.7908 26.7171 16.9192C26.1637 16.983 25.6167 17.0461 25.0883 17.0909C23.4504 17.2299 21.9088 17.209 20.5189 16.6353L20.5189 16.6353M30.0387 16.6673L20.5189 16.6353M20.5189 16.6353C20.3061 16.5475 20.0667 16.5527 19.8618 16.6769M20.5189 16.6353L19.8618 16.6769M19.8618 16.6769C19.6743 16.7907 19.5713 16.97 19.5276 17.1315M19.8618 16.6769L19.5276 17.1315M19.5276 17.1315C19.4429 17.4443 19.5406 17.9052 19.9911 18.0911L19.5276 17.1315Z" fill="#FFE5BE" stroke="#FFE5BE"/>
<path d="M20.3703 17.6673L20.3702 17.6674C20.1656 18.0085 19.9595 18.3466 19.7545 18.683C18.1793 21.2676 16.6666 23.7496 16.3416 26.698C16.288 27.1862 15.8677 27.4056 15.5417 27.4067C15.3738 27.4073 15.1749 27.3551 15.016 27.2064C14.843 27.0445 14.7711 26.8176 14.7964 26.5884L20.3703 17.6673ZM20.3703 17.6673C20.4887 17.4698 20.5143 17.2429 20.4437 17.0344C20.3776 16.8394 20.2402 16.6963 20.0925 16.6102C19.9445 16.5241 19.7541 16.4762 19.5547 16.5118C19.3424 16.5498 19.1554 16.6771 19.0368 16.8746L19.0368 16.8747M20.3703 17.6673L19.0368 16.8747M19.0368 16.8747C18.8556 17.1766 18.6718 17.479 18.4874 17.7824M19.0368 16.8747L18.4874 17.7824M18.4874 17.7824C16.852 20.4727 15.1644 23.2487 14.7964 26.5884L18.4874 17.7824Z" fill="#FFE5BE" stroke="#FFE5BE"/>
<path d="M46.3831 26.5396L46.3832 26.5397C46.4935 26.7415 46.5087 26.9659 46.4367 27.167C46.369 27.3563 46.2345 27.4979 46.0867 27.5843C45.9393 27.6705 45.7462 27.7203 45.5426 27.6804C45.3244 27.6377 45.1405 27.5001 45.0298 27.2977L46.3831 26.5396ZM46.3831 26.5396C45.6387 25.1785 45.0709 23.734 44.5425 22.2481C44.3653 21.7499 44.1915 21.2437 44.0167 20.7345C43.6749 19.7392 43.3292 18.7324 42.9467 17.7511L42.9467 17.7511M46.3831 26.5396L42.9467 17.7511M42.9467 17.7511L42.9465 17.7507M42.9467 17.7511L42.9465 17.7507M42.9465 17.7507C42.7671 17.2919 42.3026 17.1911 41.9876 17.2765M42.9465 17.7507L41.9876 17.2765M42.5421 21.2107C42.2007 20.2177 41.8631 19.2357 41.4832 18.2612L42.5421 21.2107ZM42.5421 21.2107C42.7228 21.7362 42.9045 22.2647 43.0941 22.7969M42.5421 21.2107L43.0941 22.7969M43.0941 22.7969C43.637 24.3206 44.2354 25.8455 45.0297 27.2975L43.0941 22.7969ZM41.9876 17.2765C41.8253 17.3205 41.6477 17.4236 41.5339 17.6083M41.9876 17.2765L41.5339 17.6083M41.5339 17.6083C41.4101 17.8091 41.3995 18.0463 41.4832 18.261L41.5339 17.6083Z" fill="#FFE5BE" stroke="#FFE5BE"/>
<path d="M18.5582 31.3902L18.5582 31.3902C18.0599 30.6212 17.4656 29.9646 16.8327 29.297C16.7426 29.2019 16.6515 29.1065 16.5598 29.0103C16.0152 28.4395 15.4483 27.8454 14.9351 27.1792C14.7948 26.9971 14.7366 26.7642 14.8038 26.5332C14.8652 26.3219 15.0127 26.1762 15.1572 26.0926C15.4367 25.931 15.9061 25.9056 16.2029 26.2906L16.2029 26.2908C16.5477 26.7384 16.9481 27.1384 17.3782 27.5492C17.455 27.6226 17.5331 27.6966 17.612 27.7714C17.9671 28.1078 18.3383 28.4596 18.6824 28.8379L18.5582 31.3902ZM18.5582 31.3902C18.8688 31.8694 19.1758 32.3533 19.4838 32.8387C20.4468 34.3564 21.4188 35.8884 22.5362 37.3365L18.5582 31.3902ZM30.5971 47.897C30.089 47.0601 29.4832 46.2944 28.8405 45.5258C28.6777 45.3312 28.5119 45.1355 28.3447 44.9382C27.8132 44.3113 27.2686 43.6687 26.7679 42.9931L26.7679 42.993C26.5163 42.6534 26.2652 42.3138 26.0143 41.9744C24.8632 40.4175 23.7156 38.8652 22.5362 37.3365L30.5971 47.897ZM30.5971 47.897V48.3374L30.8574 48.267M30.5971 47.897L30.8574 48.267M30.8574 48.267C31.2619 48.6327 31.9454 48.4443 32.1113 47.9276L32.371 47.8573L32.1484 47.4752V47.4746V47.4739V47.4732V47.4724V47.4717V47.471V47.4703V47.4696V47.4689V47.4681V47.4674V47.4667V47.466V47.4653V47.4645V47.4638V47.4631V47.4624V47.4617V47.461V47.4602V47.4595V47.4588V47.4581V47.4574V47.4566V47.4559V47.4552V47.4545V47.4538V47.4531V47.4523V47.4516V47.4509V47.4502V47.4495V47.4487V47.448V47.4473V47.4466V47.4459V47.4452V47.4444V47.4437V47.443V47.4423V47.4416V47.4408V47.4401V47.4394V47.4387V47.438V47.4373V47.4365V47.4358V47.4351V47.4344V47.4337V47.4329V47.4322V47.4315V47.4308V47.4301V47.4294V47.4286V47.4279V47.4272V47.4265V47.4258V47.425V47.4243V47.4236V47.4229V47.4222V47.4215V47.4207V47.42V47.4193V47.4186V47.4179V47.4172V47.4164V47.4157V47.415V47.4143V47.4136V47.4128V47.4121V47.4114V47.4107V47.41V47.4093V47.4085V47.4078V47.4071V47.4064V47.4057V47.4049V47.4042V47.4035V47.4028V47.4021V47.4014V47.4006V47.3999V47.3992V47.3985V47.3978V47.397V47.3963V47.3956V47.3949V47.3942V47.3935V47.3927V47.392V47.3913V47.3906V47.3899V47.3892V47.3884V47.3877V47.387V47.3863V47.3856V47.3848V47.3841V47.3834V47.3827V47.382V47.3813V47.3805V47.3798V47.3791V47.3784V47.3777V47.377V47.3762V47.3755V47.3748V47.3741V47.3734V47.3726V47.3719V47.3712V47.3705V47.3698V47.3691V47.3683V47.3676V47.3669V47.3662V47.3655V47.3648V47.364V47.3633V47.3626V47.3619V47.3612V47.3604V47.3597V47.359V47.3583V47.3576V47.3569V47.3561V47.3554V47.3547V47.354V47.3533V47.3526V47.3518V47.3511V47.3504V47.3497V47.349V47.3482V47.3475V47.3468V47.3461V47.3454V47.3447V47.3439V47.3432V47.3425V47.3418V47.3411V47.3404V47.3396V47.3389V47.3382V47.3375V47.3368V47.3361V47.3353V47.3346V47.3339V47.3332V47.3325V47.3317V47.331V47.3303V47.3296V47.3289V47.3282V47.3274V47.3267V47.326V47.3253V47.3246V47.3239V47.3231V47.3224V47.3217V47.321V47.3203V47.3196V47.3188V47.3181V47.3174V47.3167C32.1484 47.0862 32.0534 46.8796 31.8881 46.7376C31.8002 46.662 31.701 46.6118 31.6004 46.5825C30.8663 45.47 30.0092 44.4655 29.1698 43.4817C29.023 43.3097 28.8767 43.1383 28.7318 42.967L28.3502 43.2901L28.7318 42.967C27.6974 41.7451 26.7606 40.4554 25.813 39.1509C25.2998 38.4446 24.7836 37.7338 24.2469 37.0271C22.8135 35.1392 21.5194 33.1997 20.2603 31.1801C20.1634 31.0246 20.064 30.8586 19.9611 30.6868C19.5943 30.0746 19.1834 29.3885 18.6825 28.838L30.8574 48.267Z" fill="#FFE5BE" stroke="#FFE5BE"/>
<path d="M40.4698 36.1792L40.4698 36.1793C37.8117 40.1675 34.9115 43.9752 32.0071 47.76M40.4698 36.1792L46.4528 26.9453C46.5161 26.7237 46.4817 26.4981 46.3598 26.3153C46.2457 26.1444 46.0763 26.0416 45.9115 25.9964C45.7464 25.9512 45.5499 25.9537 45.3661 26.0398C45.1704 26.1315 45.0228 26.3033 44.9597 26.5249C44.8062 27.0633 44.4502 27.5654 43.997 28.1123C43.8999 28.2295 43.797 28.3501 43.6916 28.4736C43.3307 28.8964 42.9404 29.3538 42.6523 29.828C41.5205 31.6898 40.3564 33.5284 39.1602 35.3492C36.6501 39.1694 33.8616 42.8032 31.0658 46.4465C30.9566 46.5887 30.8475 46.7309 30.7384 46.8731C30.5982 47.0555 30.5405 47.2883 30.6077 47.519C30.6692 47.7301 30.8164 47.8759 30.9612 47.9596C31.2412 48.1215 31.711 48.1461 32.0071 47.76M40.4698 36.1792C41.7501 34.2581 42.9656 32.2985 44.1603 30.3326M40.4698 36.1792L44.1603 30.3326M32.0071 47.76L31.6105 47.4556L32.0074 47.7597C32.0073 47.7598 32.0072 47.7599 32.0071 47.76ZM44.1603 30.3326C44.1603 30.3327 44.1603 30.3327 44.1603 30.3327L43.733 30.073L44.1603 30.3326ZM44.1623 29.4655C44.2441 29.3678 44.3285 29.2688 44.4149 29.1674C44.5293 29.0332 44.6472 28.895 44.767 28.7503C44.8331 28.6706 44.8995 28.5891 44.9655 28.5059C45.3976 27.9838 45.7918 27.4402 45.972 26.8082C46.0698 26.4657 45.5376 26.3205 45.4405 26.662C45.2825 27.2163 44.9535 27.7151 44.5745 28.1941L44.1623 29.4655Z" fill="#FFE5BE" stroke="#FFE5BE"/>
<path d="M15.9758 27.4957L15.9756 27.4957C15.7476 27.4627 15.5443 27.3358 15.4317 27.1243C15.3287 26.9307 15.3318 26.7239 15.3768 26.5628C15.4641 26.25 15.7835 25.905 16.2652 25.9741L16.2656 25.9741C18.5045 26.2972 20.7305 26.2501 23.0184 26.2016C23.5027 26.1913 23.9898 26.181 24.4803 26.1741L15.9758 27.4957ZM15.9758 27.4957C18.3653 27.8404 20.7407 27.8223 23.106 27.759L15.9758 27.4957ZM38.6286 26.6235L38.6286 26.6235C38.8391 26.6307 39.0485 26.6385 39.2571 26.6462C41.2566 26.7202 43.1729 26.7911 45.0603 26.3497C45.5577 26.233 45.8993 26.5846 45.9886 26.9085C46.0339 27.0728 46.0329 27.2729 45.9408 27.4602C45.8418 27.6613 45.6591 27.8023 45.4343 27.8548L38.6286 26.6235ZM38.6286 26.6235C37.6221 26.5891 36.6284 26.5693 35.6388 26.5495M38.6286 26.6235L35.6388 26.5495M39.4458 28.1993C39.162 28.1904 38.8795 28.1815 38.5984 28.1743L39.4458 28.1993ZM39.4458 28.1993C41.407 28.2607 43.4285 28.3239 45.4341 27.8549L39.4458 28.1993ZM35.6388 26.5495C34.2298 26.5214 32.8293 26.4935 31.4127 26.4239L35.6388 26.5495ZM29.9261 26.3455C30.423 26.3726 30.9186 26.3996 31.4127 26.4239L29.9261 26.3455ZM29.9261 26.3455C28.124 26.2474 26.3052 26.1483 24.4804 26.1741L29.9261 26.3455ZM23.106 27.759C25.8319 27.6865 28.5274 27.8266 31.2734 27.9693L31.3618 27.9739C31.3618 27.9739 31.3618 27.9739 31.3618 27.9739C33.0553 28.062 34.7526 28.0951 36.4412 28.128C37.1621 28.1421 37.8815 28.1561 38.5984 28.1743L23.106 27.759Z" fill="#FFE5BE" stroke="#FFE5BE"/>
<path d="M29.3916 45.5799C28.9641 45.2913 28.7156 44.8376 28.5554 44.4314C28.4194 44.0864 28.3256 43.7157 28.2517 43.4235C28.2381 43.3697 28.2251 43.3186 28.2127 43.2708L28.2127 43.2707C27.8356 41.8165 27.5655 40.3414 27.3097 38.8834C26.6192 34.9505 25.2767 31.3256 23.8403 27.537L29.3916 45.5799ZM29.3916 45.5799C29.5827 45.709 29.8127 45.7489 30.0312 45.68C30.2336 45.6161 30.3783 45.4745 30.4635 45.3276C30.6305 45.0401 30.6463 44.5566 30.2294 44.2752C30.1529 44.2235 30.0528 44.106 29.9482 43.8834C29.8469 43.6677 29.7617 43.3977 29.6885 43.098C29.6159 42.8004 29.559 42.4903 29.5088 42.1982C29.4982 42.1368 29.4878 42.0753 29.4775 42.0146C29.4404 41.7957 29.4049 41.586 29.3691 41.4211L29.369 41.4211C29.1258 40.3034 28.9304 39.1758 28.7331 38.0369C28.6959 37.8224 28.6587 37.6075 28.621 37.3922C28.0701 34.2375 26.9222 31.248 25.7968 28.3174C25.6323 27.8891 25.4683 27.462 25.3067 27.0358L29.3916 45.5799ZM24.3482 26.5555C24.6646 26.4695 25.1311 26.5724 25.3067 27.0356L24.3482 26.5555ZM24.3482 26.5555C24.1855 26.5997 24.0088 26.7029 23.895 26.8863M24.3482 26.5555L23.895 26.8863M23.895 26.8863C23.7715 27.0853 23.7584 27.3213 23.8402 27.5368L23.895 26.8863Z" fill="#FFE5BE" stroke="#FFE5BE"/>
<path d="M33.1209 45.9436C33.0961 46.0338 33.0723 46.14 33.0432 46.2698C33.0354 46.3047 33.0272 46.3412 33.0185 46.3797C32.9794 46.5523 32.9325 46.7506 32.8718 46.9468C32.7598 47.3086 32.5643 47.7957 32.1536 48.0648L31.88 47.6472L32.1536 48.0648C31.9607 48.1912 31.7315 48.2274 31.5157 48.1581C31.3151 48.0937 31.1708 47.9532 31.0852 47.806C30.917 47.5167 30.9035 47.0302 31.3272 46.7525C31.3257 46.7535 31.325 46.754 31.325 46.754C31.3248 46.7538 31.346 46.7363 31.3818 46.679C31.4217 46.6149 31.4658 46.5237 31.5117 46.403C31.6036 46.161 31.6842 45.8497 31.7553 45.5107C31.8258 45.1745 31.8834 44.8285 31.9335 44.5205C31.9384 44.4903 31.9433 44.4602 31.9481 44.4304C31.9907 44.1675 32.0306 43.9216 32.0682 43.761C32.2443 43.0095 32.4109 42.2619 32.5782 41.5112C32.6936 40.9932 32.8093 40.4738 32.9287 39.9507C33.3697 38.0183 33.942 36.1244 34.5088 34.2488C34.5647 34.0638 34.6206 33.8789 34.6763 33.6942C35.2984 31.6306 35.8987 29.5827 36.3131 27.484L33.1209 45.9436ZM33.1209 45.9436C33.4894 44.6077 33.7877 43.2501 34.0822 41.9102C34.136 41.6654 34.1896 41.4213 34.2435 41.178L33.1209 45.9436ZM35.9241 35.0195C35.3105 37.0731 34.7032 39.1056 34.2436 41.1779L35.9241 35.0195ZM35.9241 35.0195C35.9702 34.8651 36.0164 34.7105 36.0626 34.5558M35.9241 35.0195L36.0626 34.5558M36.0626 34.5558C36.7205 32.3507 37.3724 30.119 37.8256 27.8244M36.0626 34.5558L37.8256 27.8244M37.8256 27.8244C37.9229 27.3329 37.5745 26.9999 37.2546 26.9111M37.8256 27.8244L37.2546 26.9111M37.2546 26.9111C37.0912 26.8658 36.8884 26.8654 36.6986 26.962M37.2546 26.9111L36.6986 26.962M36.6986 26.962C36.4934 27.0664 36.3578 27.2574 36.3132 27.4838L36.6986 26.962Z" fill="#FFE5BE" stroke="#FFE5BE"/>
<path d="M40.6744 22.3804L40.6744 22.3804C40.5 22.6983 40.3235 23.0366 40.1416 23.3854C39.4897 24.6351 38.7676 26.0193 37.821 27.079C37.6675 27.2512 37.4549 27.3457 37.2278 27.3338C37.0171 27.3228 36.8417 27.2234 36.7217 27.1031C36.4863 26.867 36.3481 26.401 36.6851 26.0238L40.6744 22.3804ZM40.6744 22.3804C40.7434 22.2546 40.8537 22.0788 40.9948 21.8541C41.0384 21.7846 41.085 21.7104 41.1342 21.6316C41.3352 21.3094 41.5674 20.9289 41.7747 20.5386C41.9802 20.1516 42.172 19.7349 42.2825 19.3408C42.3876 18.9654 42.4483 18.5098 42.2618 18.1138L40.6744 22.3804ZM42.2617 18.1136C42.1634 17.905 41.9847 17.7514 41.7574 17.7013C41.5477 17.6552 41.3508 17.7087 41.205 17.7942C40.9498 17.944 40.7217 18.287 40.8298 18.6803C40.8281 18.6853 40.8263 18.6906 40.8243 18.6962C40.7929 18.7847 40.7387 18.9047 40.67 19.0425C40.6028 19.1774 40.5287 19.3154 40.4622 19.4382C40.4536 19.4541 40.4449 19.4701 40.4363 19.486C40.383 19.5843 40.3307 19.6806 40.3007 19.743C39.9013 20.5732 39.4548 21.3847 39.0001 22.2051L42.2617 18.1136ZM39.0001 22.2052C38.826 22.519 38.6575 22.8385 38.4893 23.1573C37.9418 24.1953 37.3985 25.2252 36.6852 26.0237L39.0001 22.2052Z" fill="#FFE5BE" stroke="#FFE5BE"/>
<path d="M31.3023 18.6814L31.3024 18.6813C31.4223 18.4846 31.4498 18.2572 31.3794 18.0475C31.3137 17.8515 31.1758 17.7082 31.0281 17.6221C30.8802 17.5359 30.6903 17.4883 30.4916 17.5232C30.2802 17.5602 30.0927 17.6857 29.9728 17.8822L29.9727 17.8823C28.2715 20.67 26.282 23.2641 24.2596 25.866L24.2596 25.866C23.9608 26.2504 24.1033 26.6988 24.3318 26.9289C24.4496 27.0477 24.6279 27.1527 24.8472 27.1586C25.0869 27.1652 25.2975 27.051 25.4387 26.8693C27.4873 24.2338 29.5431 21.5638 31.3023 18.6814Z" fill="#FFE5BE" stroke="#FFE5BE"/>
<path d="M21.5908 22.2882L21.5909 22.2882C21.8748 22.8166 22.2037 23.3439 22.5235 23.8567C22.6678 24.0882 22.8103 24.3167 22.946 24.541C23.3435 25.1981 23.6993 25.844 23.9492 26.516L23.7629 26.9644H24.1317C24.2804 27.1913 24.5288 27.3166 24.7928 27.3065C25.0398 27.297 25.2702 27.1702 25.4158 26.9644H25.7338L25.602 26.5627C25.6628 26.3692 25.6477 26.1589 25.5369 25.9756C25.4756 25.8742 25.3952 25.7976 25.3089 25.7417C25.0653 25.1488 24.7622 24.5894 24.4465 24.0544C24.2535 23.7271 24.0663 23.4254 23.883 23.1299C23.6535 22.76 23.43 22.3997 23.2084 22.0111L23.2084 22.0111C22.9716 21.596 22.7402 21.1696 22.5063 20.7388C21.8572 19.543 21.1896 18.3133 20.3397 17.1968L20.3397 17.1968C20.0444 16.8091 19.5739 16.8328 19.2933 16.9949C19.1484 17.0786 19.0013 17.2243 18.9396 17.4349C18.8722 17.6648 18.9287 17.8974 19.0681 18.0803C19.974 19.2707 20.6744 20.5781 21.4012 21.9346C21.4642 22.0521 21.5273 22.17 21.5908 22.2882Z" fill="#FFE5BE" stroke="#FFE5BE"/>
<path d="M33.3946 24.269L33.3947 24.2691C33.4324 24.3328 33.4874 24.4338 33.5563 24.5605C33.7728 24.9585 34.1269 25.6097 34.5183 26.1536C34.7797 26.5169 35.0912 26.8833 35.438 27.1283C35.7865 27.3745 36.2597 27.5544 36.7609 27.3412C36.973 27.2512 37.1374 27.0765 37.1921 26.8428C37.2421 26.6291 37.1858 26.43 37.1011 26.286C36.9571 26.0413 36.6348 25.8176 36.2561 25.8936C36.2362 25.8773 36.2112 25.8552 36.181 25.8258C36.0277 25.6762 35.8274 25.4236 35.5887 25.0756C35.1161 24.3865 34.5528 23.4121 33.9911 22.3813C33.4312 21.3539 32.8806 20.2851 32.4334 19.4124C32.3868 19.3215 32.3412 19.2324 32.2966 19.1453C31.9212 18.4123 31.6229 17.8298 31.4862 17.6062L31.486 17.6059C31.3657 17.4094 31.178 17.2844 30.9668 17.2476C30.7683 17.2129 30.5786 17.2605 30.4307 17.3466C30.2831 17.4326 30.145 17.576 30.0792 17.7722C30.0089 17.9822 30.0369 18.2096 30.1571 18.406C30.7298 19.3428 31.249 20.3166 31.772 21.3064C31.8057 21.3703 31.8395 21.4343 31.8733 21.4983C32.3611 22.422 32.8556 23.3584 33.3946 24.269ZM36.0918 25.9449C36.0922 25.9447 36.0927 25.9445 36.0932 25.9443L36.0918 25.9449Z" fill="#FFE5BE" stroke="#FFE5BE"/>
</svg>
