<svg width="64" height="64" viewBox="0 0 64 64" fill="none" xmlns="http://www.w3.org/2000/svg">
<rect width="64" height="64" rx="20" fill="#090909"/>
<path d="M30.9212 15.2875C30.9514 14.1389 31.2478 13.0162 31.2751 11.8662C30.8032 12.3381 30.3313 12.81 29.8595 13.2819C31.1704 13.1507 32.4804 13.0068 33.7748 12.7595C33.1943 12.4301 32.6139 12.1007 32.0335 11.7709C32.2586 12.927 32.4384 14.1077 32.3369 15.2879C32.1798 17.1076 35.0126 17.0929 35.1683 15.2879C35.291 13.8685 35.0343 12.4079 34.7639 11.0187C34.6081 10.2183 33.7333 9.89415 33.0226 10.0301C31.9745 10.2297 30.9203 10.3439 29.8595 10.4505C29.077 10.5289 28.4636 11.0357 28.4438 11.8662C28.4164 13.0162 28.12 14.1384 28.0898 15.2875C28.0417 17.1146 30.8731 17.1094 30.9212 15.2875Z" fill="#FFE5BE"/>
<path d="M46.776 39.5699C49.7329 33.1105 48.8391 25.1232 43.535 20.1376C40.9141 17.6739 33.7006 12.1961 30.2742 15.7027C28.9977 17.009 30.9986 19.0122 32.276 17.7045C34.0659 15.8731 40.6031 21.2659 42.0037 22.5825C46.1035 26.4365 46.5754 33.238 44.3311 38.141C43.5765 39.7879 46.0167 41.2281 46.776 39.5699Z" fill="#FFE5BE"/>
<path d="M31.5111 14.6975C22.0567 14.976 12.8117 25.0533 14.1189 34.6149C14.4936 37.3542 16.4557 40.1516 17.8648 42.4573C19.2758 44.7658 21.253 46.5595 23.5861 47.9002C25.938 49.2517 28.7123 49.8515 31.403 49.8491C34.2802 49.8467 36.9993 48.5221 39.6428 47.5581C41.3436 46.9375 40.6093 44.2005 38.8902 44.8277C34.309 46.4996 30.4125 47.9191 25.6587 45.7837C21.4909 43.9117 18.92 39.432 17.2697 35.3529C15.6549 31.3616 18.1461 26.5997 20.6127 23.5244C23.2694 20.2112 27.1862 17.6563 31.5111 17.5289C33.3326 17.4751 33.3383 14.6437 31.5111 14.6975Z" fill="#FFE5BE"/>
<path d="M29.6739 26.6351C30.0141 28.5845 30.3029 30.5296 30.3312 32.5116C30.343 33.3454 30.9707 33.8452 31.7469 33.9273C33.9436 34.1604 36.1488 34.2774 38.3535 34.3992C40.1788 34.4997 40.1689 31.6679 38.3535 31.5678C36.1488 31.4461 33.9436 31.329 31.7469 31.0959C32.2188 31.5678 32.6907 32.0397 33.1626 32.5116C33.131 30.2809 32.787 28.0762 32.4043 25.8829C32.0909 24.0864 29.3624 24.8504 29.6739 26.6351Z" fill="#FFE5BE"/>
<path d="M29.5055 17.0569C29.5126 18.3721 29.5291 19.8231 29.9099 21.0902C30.4342 22.8343 33.167 22.0906 32.6399 20.3375C32.3303 19.3074 32.3426 18.138 32.3364 17.0564C32.327 15.2316 29.4956 15.2306 29.5055 17.0569Z" fill="#FFE5BE"/>
<path d="M19.7642 22.27C19.9983 22.8868 20.3611 23.3766 20.8552 23.8112C21.2346 24.1449 21.6532 24.4304 22.0161 24.7824C22.5691 25.3199 23.4667 25.3336 24.0179 24.7824C24.5577 24.243 24.5714 23.3176 24.0179 22.7806C23.7088 22.48 23.361 22.2238 23.0274 21.9524C22.8589 21.8151 22.698 21.6703 22.5451 21.5164C22.4866 21.4574 22.2926 21.1899 22.5149 21.498C22.4531 21.4121 22.3544 21.1479 22.4946 21.5178C22.2209 20.7972 21.5503 20.3098 20.7533 20.5292C20.062 20.7189 19.49 21.548 19.7642 22.27Z" fill="#FFE5BE"/>
<path d="M14.8767 33.8093C16.8653 33.8178 18.8307 33.8768 20.7976 33.5229C22.5927 33.2001 21.8301 30.4716 20.0449 30.793C18.3442 31.0988 16.5954 30.9855 14.8762 30.9784C13.0505 30.9704 13.0514 33.8018 14.8767 33.8093Z" fill="#FFE5BE"/>
<path d="M22.3662 44.1302C22.8725 43.6106 23.2731 42.9976 23.7818 42.4785C24.3222 41.9278 24.3316 41.026 23.7818 40.4768C23.2406 39.9355 22.3199 39.9261 21.7801 40.4768C21.2714 40.9954 20.8707 41.6084 20.3644 42.1284C19.8259 42.6805 19.8137 43.5795 20.3644 44.1302C20.9042 44.6705 21.8277 44.6828 22.3662 44.1302Z" fill="#FFE5BE"/>
<path d="M32.4043 47.7524C32.6379 46.7486 32.7314 45.7043 32.8762 44.685C32.9848 43.9215 32.7016 43.1674 31.8876 42.9437C31.2166 42.7588 30.2548 43.1669 30.1463 43.9324C30.0014 44.9517 29.908 45.996 29.6744 46.9997C29.2606 48.7764 31.9905 49.5305 32.4043 47.7524Z" fill="#FFE5BE"/>
<path d="M42.4605 33.7587C43.1938 33.9017 43.8549 33.8295 44.5873 33.7096C44.9021 33.6582 45.2149 33.5935 45.5297 33.5407C45.5306 33.5407 46.1507 33.5817 45.8822 33.5223C47.6617 33.9135 48.4177 31.184 46.6349 30.7923C45.9365 30.6385 45.2909 30.7244 44.593 30.8414C44.2768 30.8943 43.9625 30.9584 43.6464 31.0104C43.594 31.0188 43.0428 30.9953 43.2136 31.0288C42.4567 30.8815 41.6885 31.2317 41.4723 32.0174C41.2789 32.7177 41.7021 33.611 42.4605 33.7587Z" fill="#FFE5BE"/>
<path d="M40.8377 25.0039C41.7933 24.5872 42.5521 23.7798 43.4331 23.2343C44.0881 22.8289 44.3382 21.9757 43.9409 21.2976C43.5586 20.645 42.6606 20.3831 42.0042 20.7898C41.1232 21.3354 40.3644 22.1428 39.4088 22.5595C38.7009 22.8681 38.5457 23.8902 38.901 24.4961C39.3248 25.2195 40.1303 25.3125 40.8377 25.0039Z" fill="#FFE5BE"/>
<path d="M39.7758 47.3008C43.0866 45.0872 45.6655 42.8037 46.9147 38.9044C47.4734 37.1607 44.7392 36.4198 44.1847 38.1517C43.173 41.3096 41.0159 43.0708 38.3464 44.8559C36.8373 45.8653 38.2535 48.3192 39.7758 47.3008Z" fill="#FFE5BE"/>
<path d="M39.1728 41.8741C40.1624 42.4838 41.201 43.0062 42.2402 43.5257C42.9301 43.8707 43.7686 43.7154 44.1768 43.018C44.5477 42.3852 44.3585 41.4258 43.6691 41.0813C42.6299 40.5618 41.5913 40.0394 40.6017 39.4297C39.0426 38.4689 37.6217 40.9185 39.1728 41.8741Z" fill="#FFE5BE"/>
</svg>
